<?xml version="1.0" standalone="no"?><!-- Generator: Gravit.io -->
<svg xmlns="http://www.w3.org/2000/svg" xmlns:xlink="http://www.w3.org/1999/xlink" style="isolation:isolate"
     viewBox="0 0 29.486 25.671" width="29.486" height="25.671">
    <defs>
        <clipPath id="_clipPath_1ncW0SAc5RHxeiEy5Tb4j5qWon4D7seN">
            <rect width="29.486" height="25.671"/>
        </clipPath>
    </defs>
    <g clip-path="url(#_clipPath_1ncW0SAc5RHxeiEy5Tb4j5qWon4D7seN)">
        <g id="Group">
            <path d=" M 8.576 19.774 C 8.307 19.691 8.068 19.508 7.945 19.288 L 7.825 19.072 L 7.825 12.827 L 7.825 6.583 L 7.956 6.358 C 8.032 6.227 8.186 6.076 8.324 5.996 L 8.562 5.86 L 14.757 5.86 L 20.953 5.86 L 21.172 5.986 C 21.293 6.056 21.452 6.202 21.527 6.312 L 21.662 6.51 L 21.662 12.83 L 21.662 19.15 L 21.527 19.349 C 21.452 19.458 21.293 19.605 21.172 19.674 L 20.953 19.8 L 14.839 19.81 C 11.477 19.815 8.658 19.799 8.576 19.774 L 8.576 19.774 Z  M 11.946 14.422 L 11.946 11.074 L 10.895 11.059 L 9.844 11.044 L 9.844 14.422 L 9.844 17.8 L 10.895 17.785 L 11.946 17.77 L 11.946 14.422 Z  M 15.313 15.753 L 15.33 13.708 L 15.473 13.401 C 15.639 13.047 15.835 12.886 16.204 12.803 C 16.752 12.679 17.2 12.861 17.395 13.284 C 17.509 13.533 17.515 13.631 17.541 15.657 L 17.568 17.77 L 18.623 17.785 L 19.677 17.8 L 19.656 15.342 C 19.637 13.2 19.622 12.843 19.538 12.558 C 19.404 12.099 19.262 11.84 18.976 11.533 C 18.648 11.18 18.251 10.998 17.644 10.921 C 16.742 10.807 16 11.047 15.478 11.621 L 15.221 11.904 L 15.221 11.489 L 15.221 11.074 L 14.198 11.059 L 13.174 11.044 L 13.174 14.421 L 13.174 17.797 L 14.235 17.797 L 15.296 17.797 L 15.313 15.753 Z  M 11.416 10.063 C 12.205 9.656 12.34 8.624 11.681 8.042 C 11.137 7.562 10.269 7.689 9.861 8.309 C 9.678 8.586 9.625 9.105 9.749 9.402 C 9.867 9.685 10.113 9.952 10.361 10.065 C 10.658 10.201 11.152 10.2 11.416 10.063 Z "
                  fill="rgb(255,255,255)"/>
            <path d=" M 21.827 25.171 L 7.66 25.171 L 0.577 12.835 L 7.66 0.5 L 21.827 0.5 L 28.91 12.835 L 21.827 25.171 Z "
                  fill="none" vector-effect="non-scaling-stroke" stroke-width="1" stroke="rgb(255,255,255)"
                  stroke-linejoin="miter" stroke-linecap="butt" stroke-miterlimit="4"/>
        </g>
    </g>
</svg>